sfk_cyclingleg_x_-0.09_y_-0.06_states
version=1
nRows=8
nColumns=53
inDegrees=yes

# SIMM Motion File Header:
name sfk_cyclingleg_x_-0.09_y_-0.06_states
datacolumns 53
datarows 8
otherdata 1
range 0.42620202 0.42779928
endheader
time	/jointset/bb/crank_angle/value	/jointset/bb/crank_angle/speed	/jointset/spindle/pedal_angle_r/value	/jointset/spindle/pedal_angle_r/speed	/jointset/ground_pelvis/pelvis_tilt/value	/jointset/ground_pelvis/pelvis_tilt/speed	/jointset/ground_pelvis/pelvis_list/value	/jointset/ground_pelvis/pelvis_list/speed	/jointset/ground_pelvis/pelvis_rotation/value	/jointset/ground_pelvis/pelvis_rotation/speed	/jointset/ground_pelvis/pelvis_tx/value	/jointset/ground_pelvis/pelvis_tx/speed	/jointset/ground_pelvis/pelvis_ty/value	/jointset/ground_pelvis/pelvis_ty/speed	/jointset/ground_pelvis/pelvis_tz/value	/jointset/ground_pelvis/pelvis_tz/speed	/jointset/hip_r/hip_angle_r/value	/jointset/hip_r/hip_angle_r/speed	/jointset/hip_r/hip_adduction_r/value	/jointset/hip_r/hip_adduction_r/speed	/jointset/hip_r/hip_rotation_r/value	/jointset/hip_r/hip_rotation_r/speed	/jointset/knee_r/knee_angle_r/value	/jointset/knee_r/knee_angle_r/speed	/jointset/knee_r/tib_tx_r/value	/jointset/knee_r/tib_tx_r/speed	/jointset/knee_r/tib_ty_r/value	/jointset/knee_r/tib_ty_r/speed	/jointset/tib_pat_r/pat_angle_r/value	/jointset/tib_pat_r/pat_angle_r/speed	/jointset/tib_pat_r/pat_tx_r/value	/jointset/tib_pat_r/pat_tx_r/speed	/jointset/tib_pat_r/pat_ty_r/value	/jointset/tib_pat_r/pat_ty_r/speed	/jointset/ankle_r/ankle_angle_r/value	/jointset/ankle_r/ankle_angle_r/speed	/jointset/subtalar_r/subtalar_angle_r/value	/jointset/subtalar_r/subtalar_angle_r/speed	/jointset/mtp_r/mtp_angle_r/value	/jointset/mtp_r/mtp_angle_r/speed	/forceset/bifemlh_r/activation	/forceset/bifemlh_r/fiber_length	/forceset/bifemsh_r/activation	/forceset/bifemsh_r/fiber_length	/forceset/glut_max2_r/activation	/forceset/glut_max2_r/fiber_length	/forceset/vas_int_r/activation	/forceset/vas_int_r/fiber_length	/forceset/med_gas_r/activation	/forceset/med_gas_r/fiber_length	/forceset/tib_ant_r/activation	/forceset/tib_ant_r/fiber_length
      0.42620202	   -214.77093217	   -480.13863232	    207.44020161	    285.64463103	      0.00000000	      0.00000000	      0.00000000	      0.00000000	      0.00000000	      0.00000000	     -0.09000000	     -0.00000000	     -0.05623795	      0.00000000	     -0.00000000	     -0.00000000	     42.13987193	     79.52859921	      4.37475966	     -0.57078067	     -0.09036349	    -20.87320275	    -70.67725648	   -272.53649162	      0.00514949	     -0.00107920	     -0.47935932	     -0.08962045	     17.52382998	      1.40846149	      0.03952408	     -0.08749224	     -0.02257798	      0.00663662	     21.65169906	     -0.70296482	      0.00000000	      0.00000000	     -0.00000000	     -0.00000000	     -0.02943139	      0.11369049	     -0.02943139	      0.16060235	     -0.02943139	      0.13181104	     -0.02943139	      0.13654580	     -0.02943139	      0.14212798	     -0.02943139	      0.11689028
      0.42662038	   -214.97180327	   -480.13863232	    207.55975502	    285.88852961	      0.00000000	      0.00000000	      0.00000000	      0.00000000	      0.00000000	      0.00000000	     -0.09000000	     -0.00000000	     -0.05623795	      0.00000000	     -0.00000000	     -0.00000000	     42.17319885	     79.79279658	      4.37451939	     -0.57785509	     -0.09909757	    -20.88060830	    -70.79131496	   -272.72695352	      0.00514899	     -0.00128662	     -0.47939684	     -0.08973636	     17.52441355	      1.38137785	      0.03948745	     -0.08763534	     -0.02257521	      0.00657174	     21.65144131	     -0.52923419	      0.00000000	      0.00000000	     -0.00000000	     -0.00000000	     -0.02948525	      0.11366813	     -0.02948525	      0.16054351	     -0.02948525	      0.13183540	     -0.02948525	      0.13661744	     -0.02948525	      0.14201137	     -0.02948525	      0.11689115
      0.42666221	   -214.99189038	   -480.13863232	    207.57171598	    285.91304125	      0.00000000	      0.00000000	      0.00000000	      0.00000000	      0.00000000	      0.00000000	     -0.09000000	     -0.00000000	     -0.05623795	      0.00000000	     -0.00000000	     -0.00000000	     42.17653762	     79.81917333	      4.37449520	     -0.57856294	     -0.09997115	    -20.88134349	    -70.80272517	   -272.74584517	      0.00514894	     -0.00130738	     -0.47940059	     -0.08974789	     17.52447129	      1.37868466	      0.03948378	     -0.08764962	     -0.02257494	      0.00656521	     21.65141953	     -0.51185099	      0.00000000	      0.00000000	     -0.00000000	     -0.00000000	     -0.02949064	      0.11366591	     -0.02949064	      0.16053763	     -0.02949064	      0.13183784	     -0.02949064	      0.13662563	     -0.02949064	      0.14206105	     -0.02949064	      0.11689123
      0.42671440	   -215.01694717	   -480.13863232	    207.58663760	    285.94364820	      0.00000000	      0.00000000	      0.00000000	      0.00000000	      0.00000000	      0.00000000	     -0.09000000	     -0.00000000	     -0.05623795	      0.00000000	     -0.00000000	     -0.00000000	     42.18070397	     79.85206494	      4.37446498	     -0.57944603	     -0.10106090	    -20.88225922	    -70.81695946	   -272.76937144	      0.00514887	     -0.00133329	     -0.47940528	     -0.08976225	     17.52454315	      1.37532903	      0.03947921	     -0.08766743	     -0.02257460	      0.00655704	     21.65139338	     -0.49016451	      0.00000000	      0.00000000	     -0.00000000	     -0.00000000	     -0.02949736	      0.11366313	     -0.02949736	      0.16053029	     -0.02949736	      0.13184089	     -0.02949736	      0.13663549	     -0.02949736	      0.14206107	     -0.02949736	      0.11689134
      0.42697533	   -215.14223110	   -480.13863232	    207.66126970	    286.09719820	      0.00000000	      0.00000000	      0.00000000	      0.00000000	      0.00000000	      0.00000000	     -0.09000000	     -0.00000000	     -0.05623795	      0.00000000	     -0.00000000	     -0.00000000	     42.20156143	     80.01634211	      4.37431321	     -0.58386316	     -0.10651036	    -20.88681533	    -70.88814923	   -272.88634944	      0.00514850	     -0.00146292	     -0.47942871	     -0.08983383	     17.52489983	      1.35861569	      0.03945632	     -0.08775634	     -0.02257289	      0.00651598	     21.65127963	     -0.38168976	      0.00000000	      0.00000000	     -0.00000000	     -0.00000000	     -0.02953095	      0.11364930	     -0.02953095	      0.16049361	     -0.02953095	      0.13185614	     -0.02953095	      0.13668299	     -0.02953095	      0.14205078	     -0.02953095	      0.11689184
      0.42724455	   -215.27149423	   -480.13863232	    207.73831433	    286.25652339	      0.00000000	      0.00000000	      0.00000000	      0.00000000	      0.00000000	      0.00000000	     -0.09000000	     -0.00000000	     -0.05623795	      0.00000000	     -0.00000000	     -0.00000000	     42.22312625	     80.18552269	      4.37415541	     -0.58842354	     -0.11213415	    -20.89147714	    -70.96163193	   -273.00590437	      0.00514809	     -0.00159683	     -0.47945290	     -0.08990724	     17.52526329	      1.34148521	      0.03943268	     -0.08784787	     -0.02257114	      0.00647323	     21.65119195	     -0.26969641	      0.00000000	      0.00000000	     -0.00000000	     -0.00000000	     -0.02956561	      0.11363510	     -0.02956561	      0.16045578	     -0.02956561	      0.13187190	     -0.02956561	      0.13673111	     -0.02956561	      0.14202688	     -0.02956561	      0.11689234
      0.42774885	   -215.51362622	   -480.13863232	    207.88274809	    286.55741288	      0.00000000	      0.00000000	      0.00000000	      0.00000000	      0.00000000	      0.00000000	     -0.09000000	     -0.00000000	     -0.05623795	      0.00000000	     -0.00000000	     -0.00000000	     42.26364322	     80.50157664	      4.37385651	     -0.59697372	     -0.12267181	    -20.90010431	    -71.09936357	   -273.22675363	      0.00514722	     -0.00184811	     -0.47949828	     -0.09004351	     17.52593177	      1.30970998	      0.03938834	     -0.08801875	     -0.02256790	      0.00639214	     21.65110888	     -0.05971695	      0.00000000	      0.00000000	     -0.00000000	     -0.00000000	     -0.02963054	      0.11360870	     -0.02963054	      0.16038494	     -0.02963054	      0.13190152	     -0.02963054	      0.13682149	     -0.02963054	      0.14191351	     -0.02963054	      0.11689321
      0.42779928	   -215.53783942	   -480.13863232	    207.89719983	    286.58767675	      0.00000000	      0.00000000	      0.00000000	      0.00000000	      0.00000000	      0.00000000	     -0.09000000	     -0.00000000	     -0.05623795	      0.00000000	     -0.00000000	     -0.00000000	     42.26770368	     80.53312154	      4.37382639	     -0.59782928	     -0.12372582	    -20.90095956	    -71.11314283	   -273.24861719	      0.00514713	     -0.00187327	     -0.47950282	     -0.09005705	     17.52599774	      1.30655505	      0.03938390	     -0.08803580	     -0.02256758	      0.00638396	     21.65110640	     -0.03870511	      0.00000000	      0.00000000	     -0.00000000	     -0.00000000	     -0.02963704	      0.11360607	     -0.02963704	      0.16037786	     -0.02963704	      0.13190449	     -0.02963704	      0.13683044	     -0.02963704	      0.14193989	     -0.02963704	      0.11689330
